<svg xmlns="http://www.w3.org/2000/svg" viewBox="0 0 1024 1024">
  <rect width="1024" height="1024" fill="#d9e9f1"/>
  <rect x="36" y="85" width="742" height="939" rx="34" fill="#97a8b4"/>
  <path d="M110 14h527l187 185v741c0 17-14 30-31 30H110c-17 0-30-13-30-30V44c0-17 13-30 30-30z" fill="#aec5d1"/>
  <path d="M637 14l187 185H670c-18 0-33-15-33-33z" fill="#8b9ca7"/>
  <rect x="147" y="66" width="600" height="842" rx="52" fill="#b9d0dc"/>
  <rect x="156" y="63" width="103" height="25" rx="12" fill="#253763"/>
  <rect x="156" y="117" width="68" height="22" rx="11" fill="#253763"/>
  <text x="160" y="335" font-family="Avenir Next, Trebuchet MS, sans-serif" font-size="126" font-weight="700" fill="#ec6d69">EXAM</text>
  <rect x="167" y="470" width="80" height="80" rx="10" fill="#ef8466"/>
  <rect x="167" y="644" width="80" height="80" rx="10" fill="#ef8466"/>
  <rect x="167" y="818" width="80" height="80" rx="10" fill="#ef8466"/>
  <path d="M188 501l28 28 78-111" fill="none" stroke="#deca42" stroke-linecap="round" stroke-linejoin="round" stroke-width="24"/>
  <path d="M188 675l28 28 78-111" fill="none" stroke="#deca42" stroke-linecap="round" stroke-linejoin="round" stroke-width="24"/>
  <path d="M188 849l28 28 78-111" fill="none" stroke="#deca42" stroke-linecap="round" stroke-linejoin="round" stroke-width="24"/>
  <rect x="305" y="461" width="429" height="24" rx="12" fill="#253763"/>
  <rect x="305" y="521" width="330" height="24" rx="12" fill="#253763"/>
  <rect x="305" y="635" width="429" height="24" rx="12" fill="#253763"/>
  <rect x="305" y="695" width="330" height="24" rx="12" fill="#253763"/>
  <rect x="305" y="809" width="429" height="24" rx="12" fill="#253763"/>
  <rect x="305" y="869" width="330" height="24" rx="12" fill="#253763"/>
  <rect x="896" y="281" width="90" height="570" rx="6" fill="#ec8668"/>
  <rect x="940" y="281" width="46" height="570" fill="#e0b46f"/>
  <rect x="896" y="281" width="90" height="38" fill="#d96d8a"/>
  <path d="M896 281c0-23 20-42 45-42s45 19 45 42z" fill="#f0a6ca"/>
  <rect x="896" y="319" width="90" height="21" fill="#c2d6e1"/>
  <rect x="896" y="340" width="90" height="21" fill="#84939d"/>
  <rect x="896" y="361" width="90" height="22" fill="#c2d6e1"/>
  <path d="M896 851l44 96 46-96z" fill="#dfb77d"/>
  <path d="M918 946l22 54 24-54c-15-8-30-8-46 0z" fill="#253763"/>
</svg>
